# xmcd
#
# Track frame offsets:
#	150
#	21630
#	43762
#	57427
#	74012
#	93470
#	107270
#	132142
#	148690
#	169667
#
# Disc length: 2524 seconds
#
# Revision: 0
# Processed by: cddbd v1.4PL0 Copyright (c) Steve Scherf et al.
# Submitted via: EasyCDDAExtractor 4.6.0.1
#
DISCID=9109da0a
DTITLE=김수지 - 1st Project Album love Song - Thru His Love
DYEAR=2000
DGENRE=CCM
TTITLE0=사랑으로
TTITLE1=이제 그대와
TTITLE2=주가 계획하신 이날
TTITLE3=아가에게
TTITLE4=오늘 난
TTITLE5=사랑하기 전에
TTITLE6=주의 가정
TTITLE7=날 향한 그 사랑
TTITLE8=사랑은
TTITLE9=정말 나를
EXTD=
EXTT0=
EXTT1=
EXTT2=
EXTT3=
EXTT4=
EXTT5=
EXTT6=
EXTT7=
EXTT8=
EXTT9=
PLAYORDER=
